<svg xmlns="http://www.w3.org/2000/svg" viewBox="0 0 92.41 76"><g id="Layer_2" data-name="Layer 2"><g id="Layer_1-2" data-name="Layer 1"><path d="M92.41,22.93c-.08.12-.17.23-.24.36a2.64,2.64,0,0,1-2.43,1.59,2.75,2.75,0,0,1-2.49-1.5c-1.13-1.91-2.21-3.86-3.45-5.7a52.75,52.75,0,0,0-12-12.59,2.77,2.77,0,0,1-1.29-2.94A2.71,2.71,0,0,1,74.87.62,59.4,59.4,0,0,1,85.22,10.5a60.36,60.36,0,0,1,7.19,11Z"/><path d="M64.49,43.68a49,49,0,0,1,5.69,0,16.22,16.22,0,0,1,.8,32A13.47,13.47,0,0,1,68.3,76Q42,76,15.79,76a16.26,16.26,0,0,1-5.22-31.5,1.43,1.43,0,0,0,.74-.86c2.6-11.09,9.38-18.23,20.4-21C46,19,60.9,28.22,64.24,42.61,64.32,43,64.41,43.36,64.49,43.68ZM28,51.63c0,3,0,6,0,9a3.29,3.29,0,0,0,5.3,3c2.57-1.56,5.16-3.07,7.75-4.6s5.11-3,7.66-4.56c1.58-.95,2.28-2.46,1.59-3.95a4.76,4.76,0,0,0-1.79-1.91c-5.08-3.09-10.21-6.1-15.31-9.15a3.3,3.3,0,0,0-3.49-.28A3.35,3.35,0,0,0,28,42.43C28,45.5,28,48.57,28,51.63Z"/><path d="M79.14,28.51a2.91,2.91,0,0,1-2.36-1.69,42.67,42.67,0,0,0-8.22-10.31c-.64-.59-1.32-1.14-2-1.72a2.72,2.72,0,1,1,3.52-4.14A47.8,47.8,0,0,1,81.6,24.28,2.75,2.75,0,0,1,79.14,28.51Z"/><path d="M63.74,20a6.27,6.27,0,0,1,1.54.83,34.73,34.73,0,0,1,5.81,7,2.73,2.73,0,0,1-.75,3.88,2.82,2.82,0,0,1-3.8-.88c-1.61-2-3.29-4-5-6A2.76,2.76,0,0,1,63.74,20Z"/></g></g></svg>