<svg xmlns="http://www.w3.org/2000/svg" viewBox="0 0 86 73.35"><g id="Layer_2" data-name="Layer 2"><g id="Layer_1-2" data-name="Layer 1"><path d="M0,0H86V64.52H51.69a3.23,3.23,0,0,1,.31-.94c2.85-3.41,2.85-3.41,4.12-7.26H72.77c0-.87,0-1.65,0-2.43a2.53,2.53,0,0,1,2.66-2.62c.75,0,1.51,0,2.33,0V13.35H75.71c-2,0-2.94-1-2.95-2.93V8.34H13.29c0,.72,0,1.47,0,2.21a2.53,2.53,0,0,1-2.73,2.79c-.75,0-1.5,0-2.29,0V51.27c.78,0,1.55,0,2.32,0a2.54,2.54,0,0,1,2.7,2.67c0,.75,0,1.5,0,2.35H30A13.62,13.62,0,0,0,32.62,62c.38.48.85.89,1.23,1.38a8.29,8.29,0,0,1,.63,1.12c-.44,0-.66.07-.87.07q-16.56,0-33.11,0c-.17,0-.33,0-.5,0Z"/><path d="M56.05,51.22A13.32,13.32,0,0,0,43,40.56c-6.26,0-11.38,4.22-13,10.68-.22,0-.47,0-.71,0-3.56,0-7.12,0-10.67,0a.91.91,0,0,1-1-.63c-.79-1.79-1.74-2.64-4.34-4.06v-.73q0-13.57,0-27.14A1,1,0,0,1,14,17.62a7,7,0,0,0,3.68-3.74.85.85,0,0,1,.94-.6h48.9a.87.87,0,0,1,.94.6,7.49,7.49,0,0,0,3.82,3.84,1,1,0,0,1,.51.78q0,13.81,0,27.65a1,1,0,0,1-.47.72,7.78,7.78,0,0,0-3.94,4,.92.92,0,0,1-.66.46c-3.78,0-7.56,0-11.34,0A2,2,0,0,1,56.05,51.22Zm3.09-21.37H26.94v4.9h32.2Zm-22.79-4a12.38,12.38,0,0,1,13.36,0l2.72-4.07c-5.82-4.13-14-3.6-18.78,0Z"/><path d="M43,62.05a8.24,8.24,0,1,1,8.26-8.16A8.2,8.2,0,0,1,43,62.05Zm-2.62-5.78h5.28V51.39H40.38Z"/><path d="M39.36,66.56a13.32,13.32,0,0,0,7.3,0v6.78a7.55,7.55,0,0,0-7.3,0Z"/></g></g></svg>