<svg xmlns="http://www.w3.org/2000/svg" viewBox="0 0 76 65.12"><g id="Layer_2" data-name="Layer 2"><g id="Layer_1-2" data-name="Layer 1"><path d="M76,32.72v3.85H73.21v9.5H76v3.86H71.21v1.79H67.28v9.55h3.9v3.85H9.3a12.3,12.3,0,0,1-2.5-.22A8.58,8.58,0,0,1,.11,57.63a8.43,8.43,0,0,1,4-8.4A30.37,30.37,0,0,1,7.65,47.7,8.42,8.42,0,0,1,5,40a8.65,8.65,0,0,1,5.12-6.6C6.2,32.94,3.47,31.1,2.21,27.5S2,20.8,4.68,18.2a4.38,4.38,0,0,0,.67-.87Q10.66,9,16,.62a1,1,0,0,1,1-.62Q38.47,0,60,0a1.36,1.36,0,0,1,.92.44c3.64,4.4,7.21,8.86,10.89,13.23a4.8,4.8,0,0,1,1.34,3.86,27,27,0,0,0,0,3H68.22c.15.32.25.56.37.79,1.34,2.51,2.68,5,4,7.52A2.89,2.89,0,0,1,72.87,30c0,.88,0,1.76,0,2.74Zm-6.77,3.84H14.13c-.35,0-.7,0-1,0a4.76,4.76,0,0,0-4.2,6c.66,2.29,2.41,3.52,5,3.52H68.43c.26,0,.52,0,.8,0ZM63.31,51.69h-54c-.35,0-.7,0-1,0A4.82,4.82,0,0,0,4,57.14a5,5,0,0,0,5.16,4.12c17.8,0,35.6,0,53.4,0,.26,0,.52,0,.8,0Zm1.91-31.15H43.4q-17.35,0-34.71,0a2,2,0,0,0-1,.24,4.67,4.67,0,0,0-1.89,5.14,4.78,4.78,0,0,0,5,3.53H64.43l.79,0Z"/></g></g></svg>